<svg width="28" height="28" viewBox="0 0 28 28" fill="none" xmlns="http://www.w3.org/2000/svg">
<g id="vuesax/outline/frame">
<g id="frame">
<path id="Vector" d="M13.7312 13.5526C13.6973 13.5526 13.6748 13.5526 13.6409 13.5526C13.5844 13.5413 13.5054 13.5413 13.4376 13.5526C10.1628 13.451 7.68976 10.8763 7.68976 7.70313C7.68976 4.47349 10.3209 1.84235 13.5505 1.84235C16.7802 1.84235 19.4113 4.47349 19.4113 7.70313C19.4 10.8763 16.9157 13.451 13.7651 13.5526C13.7538 13.5526 13.7425 13.5526 13.7312 13.5526ZM13.5505 3.53622C11.2582 3.53622 9.38363 5.41076 9.38363 7.70313C9.38363 9.96162 11.1453 11.7797 13.3925 11.8588C13.4489 11.8475 13.607 11.8475 13.7538 11.8588C15.9671 11.7571 17.7062 9.93904 17.7175 7.70313C17.7175 5.41076 15.8429 3.53622 13.5505 3.53622Z" fill="#7B7B7B"/>
<path id="Vector_2" d="M13.7425 25.8953C11.5292 25.8953 9.30455 25.3306 7.62197 24.2014C6.05232 23.1625 5.19409 21.7396 5.19409 20.1926C5.19409 18.6455 6.05232 17.2114 7.62197 16.1612C11.0097 13.914 16.4978 13.914 19.863 16.1612C21.4214 17.2001 22.2909 18.6229 22.2909 20.17C22.2909 21.7171 21.4326 23.1512 19.863 24.2014C18.1691 25.3306 15.9558 25.8953 13.7425 25.8953ZM8.55924 17.584C7.47517 18.3067 6.88796 19.2327 6.88796 20.2039C6.88796 21.1637 7.48646 22.0897 8.55924 22.8011C11.3711 24.687 16.1139 24.687 18.9257 22.8011C20.0098 22.0784 20.597 21.1524 20.597 20.1813C20.597 19.2214 19.9985 18.2954 18.9257 17.584C16.1139 15.7095 11.3711 15.7095 8.55924 17.584Z" fill="#7B7B7B"/>
</g>
</g>
</svg>
