<svg width="26" height="26" viewBox="0 0 26 26" fill="none" xmlns="http://www.w3.org/2000/svg">
<g id="icon">
<path id="Vector" d="M22.316 14.8077H17.5302C15.1491 14.8077 14 13.706 14 11.4315V3.37615C14 1.10169 15.1609 0 17.5302 0H22.316C24.6971 0 25.8462 1.10169 25.8462 3.37615V11.4315C25.8462 13.706 24.6852 14.8077 22.316 14.8077ZM17.5302 1.77692C16.0257 1.77692 15.7769 2.17969 15.7769 3.37615V11.4315C15.7769 12.628 16.0257 13.0308 17.5302 13.0308H22.316C23.8205 13.0308 24.0692 12.628 24.0692 11.4315V3.37615C24.0692 2.17969 23.8205 1.77692 22.316 1.77692H17.5302Z" fill="#1A2B88"/>
<path id="Vector_2" d="M22.316 25.8846H17.5302C15.1491 25.8846 14 24.7829 14 22.5085V20.3762C14 18.1017 15.1609 17 17.5302 17H22.316C24.6971 17 25.8462 18.1017 25.8462 20.3762V22.5085C25.8462 24.7829 24.6852 25.8846 22.316 25.8846ZM17.5302 18.7769C16.0257 18.7769 15.7769 19.1797 15.7769 20.3762V22.5085C15.7769 23.7049 16.0257 24.1077 17.5302 24.1077H22.316C23.8205 24.1077 24.0692 23.7049 24.0692 22.5085V20.3762C24.0692 19.1797 23.8205 18.7769 22.316 18.7769H17.5302Z" fill="#1A2B88"/>
<path id="Vector_3" d="M8.424 26H3.576C1.164 26 0 24.8753 0 22.5535V3.44651C0 1.12465 1.176 0 3.576 0H8.424C10.836 0 12 1.12465 12 3.44651V22.5535C12 24.8753 10.824 26 8.424 26ZM3.576 1.81395C2.052 1.81395 1.8 2.22512 1.8 3.44651V22.5535C1.8 23.7749 2.052 24.186 3.576 24.186H8.424C9.948 24.186 10.2 23.7749 10.2 22.5535V3.44651C10.2 2.22512 9.948 1.81395 8.424 1.81395H3.576Z" fill="#1A2B88"/>
</g>
</svg>
