<svg width="28" height="28" viewBox="0 0 28 28" fill="none" xmlns="http://www.w3.org/2000/svg">
<g id="ph:lock-thin">
<path id="Vector" d="M22.0187 8.89219H18.2078V5.92813C18.2078 4.6928 17.7171 3.50806 16.8435 2.63456C15.97 1.76105 14.7853 1.27031 13.55 1.27031C12.3146 1.27031 11.1299 1.76105 10.2564 2.63456C9.3829 3.50806 8.89216 4.6928 8.89216 5.92813V8.89219H5.08123C4.74432 8.89219 4.42121 9.02602 4.18298 9.26425C3.94475 9.50248 3.81091 9.82559 3.81091 10.1625V22.0188C3.81091 22.3557 3.94475 22.6788 4.18298 22.917C4.42121 23.1552 4.74432 23.2891 5.08123 23.2891H22.0187C22.3556 23.2891 22.6787 23.1552 22.917 22.917C23.1552 22.6788 23.289 22.3557 23.289 22.0188V10.1625C23.289 9.82559 23.1552 9.50248 22.917 9.26425C22.6787 9.02602 22.3556 8.89219 22.0187 8.89219ZM9.73904 5.92813C9.73904 4.9174 10.1405 3.94808 10.8552 3.23339C11.5699 2.5187 12.5393 2.11719 13.55 2.11719C14.5607 2.11719 15.53 2.5187 16.2447 3.23339C16.9594 3.94808 17.3609 4.9174 17.3609 5.92813V8.89219H9.73904V5.92813ZM22.4422 22.0188C22.4422 22.1311 22.3976 22.2388 22.3181 22.3182C22.2387 22.3976 22.131 22.4422 22.0187 22.4422H5.08123C4.96892 22.4422 4.86122 22.3976 4.78181 22.3182C4.7024 22.2388 4.65779 22.1311 4.65779 22.0188V10.1625C4.65779 10.0502 4.7024 9.9425 4.78181 9.86309C4.86122 9.78368 4.96892 9.73906 5.08123 9.73906H22.0187C22.131 9.73906 22.2387 9.78368 22.3181 9.86309C22.3976 9.9425 22.4422 10.0502 22.4422 10.1625V22.0188ZM14.3969 16.0906C14.3969 16.2581 14.3472 16.4219 14.2541 16.5611C14.1611 16.7004 14.0288 16.8089 13.8741 16.873C13.7193 16.9371 13.549 16.9539 13.3848 16.9212C13.2205 16.8886 13.0696 16.8079 12.9511 16.6895C12.8327 16.571 12.7521 16.4201 12.7194 16.2558C12.6867 16.0916 12.7035 15.9213 12.7676 15.7665C12.8317 15.6118 12.9402 15.4795 13.0795 15.3865C13.2187 15.2934 13.3825 15.2438 13.55 15.2438C13.7746 15.2438 13.99 15.333 14.1488 15.4918C14.3076 15.6506 14.3969 15.866 14.3969 16.0906Z" fill="black"/>
</g>
</svg>
