<svg width="28" height="29" viewBox="0 0 28 29" fill="none" xmlns="http://www.w3.org/2000/svg">
<g id="vuesax/linear/personalcard">
<g id="personalcard">
<path id="Vector" d="M19.8333 24.9308H8.16665C3.49998 24.9308 2.33331 23.7641 2.33331 19.0975V9.76412C2.33331 5.09745 3.49998 3.93079 8.16665 3.93079H19.8333C24.5 3.93079 25.6666 5.09745 25.6666 9.76412V19.0975C25.6666 23.7641 24.5 24.9308 19.8333 24.9308Z" stroke="#7B7B7B" stroke-width="1.75" stroke-linecap="round" stroke-linejoin="round"/>
<path id="Vector_2" d="M16.3333 9.76411H22.1666" stroke="#7B7B7B" stroke-width="1.75" stroke-linecap="round" stroke-linejoin="round"/>
<path id="Vector_3" d="M17.5 14.4308H22.1667" stroke="#7B7B7B" stroke-width="1.75" stroke-linecap="round" stroke-linejoin="round"/>
<path id="Vector_4" d="M19.8333 19.0975H22.1666" stroke="#7B7B7B" stroke-width="1.75" stroke-linecap="round" stroke-linejoin="round"/>
<path id="Vector_5" d="M9.91715 13.6024C11.0834 13.6024 12.0288 12.6569 12.0288 11.4907C12.0288 10.3245 11.0834 9.37903 9.91715 9.37903C8.75091 9.37903 7.80548 10.3245 7.80548 11.4907C7.80548 12.6569 8.75091 13.6024 9.91715 13.6024Z" stroke="#7B7B7B" stroke-width="1.75" stroke-linecap="round" stroke-linejoin="round"/>
<path id="Vector_6" d="M14 19.4822C13.8366 17.7905 12.495 16.4605 10.8033 16.3088C10.22 16.2505 9.62498 16.2505 9.02998 16.3088C7.33831 16.4722 5.99665 17.7905 5.83331 19.4822" stroke="#7B7B7B" stroke-width="1.75" stroke-linecap="round" stroke-linejoin="round"/>
</g>
</g>
</svg>
