<svg width="28" height="28" viewBox="0 0 28 28" fill="none" xmlns="http://www.w3.org/2000/svg">
<g id="vuesax/outline/setting-2">
<g id="setting-2">
<path id="Vector" d="M13.551 18.3183C11.2134 18.3183 9.31628 16.4212 9.31628 14.0837C9.31628 11.7461 11.2134 9.84899 13.551 9.84899C15.8885 9.84899 17.7856 11.7461 17.7856 14.0837C17.7856 16.4212 15.8885 18.3183 13.551 18.3183ZM13.551 11.5429C12.1507 11.5429 11.0102 12.6834 11.0102 14.0837C11.0102 15.4839 12.1507 16.6245 13.551 16.6245C14.9512 16.6245 16.0918 15.4839 16.0918 14.0837C16.0918 12.6834 14.9512 11.5429 13.551 11.5429Z" fill="#7B7B7B"/>
<path id="Vector_2" d="M17.1758 25.5907C16.9387 25.5907 16.7016 25.5568 16.4644 25.5003C15.7643 25.3084 15.1771 24.868 14.8044 24.2469L14.6689 24.021C14.0027 22.8692 13.088 22.8692 12.4217 24.021L12.2975 24.2356C11.9248 24.868 11.3376 25.3197 10.6375 25.5003C9.92607 25.6923 9.19207 25.5907 8.57098 25.218L6.62868 24.1001C5.93984 23.7048 5.44297 23.0612 5.22841 22.282C5.02515 21.5028 5.12678 20.701 5.52202 20.0122C5.8495 19.4363 5.93984 18.9168 5.74786 18.5894C5.55589 18.2619 5.07032 18.0699 4.40406 18.0699C2.75536 18.0699 1.41156 16.7261 1.41156 15.0774V13.0899C1.41156 11.4412 2.75536 10.0974 4.40406 10.0974C5.07032 10.0974 5.55589 9.90545 5.74786 9.57797C5.93984 9.25049 5.86079 8.73104 5.52202 8.15512C5.12678 7.46628 5.02515 6.65323 5.22841 5.88534C5.43168 5.10616 5.92854 4.46249 6.62868 4.06725L8.58227 2.9493C9.85832 2.1927 11.5409 2.63311 12.3088 3.93174L12.4443 4.15759C13.1105 5.30942 14.0252 5.30942 14.6915 4.15759L14.8157 3.94304C15.5836 2.63311 17.2662 2.1927 18.5535 2.96059L20.4958 4.07854C21.1847 4.47378 21.6815 5.11745 21.8961 5.89663C22.0993 6.67581 21.9977 7.47758 21.6025 8.16642C21.275 8.74233 21.1847 9.26178 21.3766 9.58927C21.5686 9.91675 22.0542 10.1087 22.7204 10.1087C24.3691 10.1087 25.7129 11.4525 25.7129 13.1012V15.0887C25.7129 16.7374 24.3691 18.0812 22.7204 18.0812C22.0542 18.0812 21.5686 18.2732 21.3766 18.6006C21.1847 18.9281 21.2637 19.4476 21.6025 20.0235C21.9977 20.7123 22.1106 21.5254 21.8961 22.2933C21.6928 23.0725 21.1959 23.7161 20.4958 24.1114L18.5422 25.2293C18.1131 25.4665 17.6501 25.5907 17.1758 25.5907ZM13.551 21.4125C14.556 21.4125 15.4933 22.0448 16.1369 23.1628L16.2611 23.3774C16.3967 23.6145 16.6225 23.7839 16.8935 23.8516C17.1645 23.9194 17.4356 23.8855 17.6614 23.75L19.615 22.6208C19.9086 22.4514 20.1345 22.1691 20.2248 21.8303C20.3151 21.4915 20.27 21.1415 20.1006 20.8478C19.4569 19.7412 19.3779 18.6006 19.8747 17.7311C20.3716 16.8616 21.3992 16.3647 22.6866 16.3647C23.4093 16.3647 23.9852 15.7888 23.9852 15.0661V13.0786C23.9852 12.3672 23.4093 11.78 22.6866 11.78C21.3992 11.78 20.3716 11.2831 19.8747 10.4136C19.3779 9.5441 19.4569 8.40356 20.1006 7.2969C20.27 7.00329 20.3151 6.65323 20.2248 6.31445C20.1345 5.97568 19.9199 5.70466 19.6263 5.52398L17.6727 4.40603C17.1871 4.11242 16.5435 4.28181 16.2499 4.77868L16.1256 4.99323C15.482 6.11119 14.5447 6.74357 13.5397 6.74357C12.5346 6.74357 11.5974 6.11119 10.9537 4.99323L10.8295 4.76738C10.5472 4.2931 9.91478 4.12371 9.42921 4.40603L7.47561 5.53527C7.18201 5.70466 6.95616 5.98697 6.86582 6.32574C6.77548 6.66452 6.82065 7.01458 6.99004 7.30819C7.63371 8.41485 7.71275 9.55539 7.21588 10.4249C6.71902 11.2944 5.6914 11.7913 4.40406 11.7913C3.68134 11.7913 3.10543 12.3672 3.10543 13.0899V15.0774C3.10543 15.7888 3.68134 16.376 4.40406 16.376C5.6914 16.376 6.71902 16.8729 7.21588 17.7424C7.71275 18.6119 7.63371 19.7525 6.99004 20.8591C6.82065 21.1527 6.77548 21.5028 6.86582 21.8416C6.95616 22.1804 7.17071 22.4514 7.46432 22.6321L9.41791 23.75C9.65506 23.8968 9.93737 23.9307 10.1971 23.8629C10.4681 23.7952 10.694 23.6145 10.8408 23.3774L10.965 23.1628C11.6087 22.0561 12.5459 21.4125 13.551 21.4125Z" fill="#7B7B7B"/>
</g>
</g>
</svg>
